<svg width="28" height="28" viewBox="0 0 28 28" fill="none" xmlns="http://www.w3.org/2000/svg">
<g id="Group 2">
<path id="Vector" d="M10.7468 26.17C11.3851 26.17 11.9026 25.6525 11.9026 25.0141C11.9026 24.3758 11.3851 23.8583 10.7468 23.8583C10.1084 23.8583 9.59094 24.3758 9.59094 25.0141C9.59094 25.6525 10.1084 26.17 10.7468 26.17Z" fill="white" stroke="white" stroke-width="2" stroke-linecap="round" stroke-linejoin="round"/>
<path id="Vector_2" d="M23.461 26.17C24.0994 26.17 24.6169 25.6525 24.6169 25.0141C24.6169 24.3758 24.0994 23.8583 23.461 23.8583C22.8227 23.8583 22.3052 24.3758 22.3052 25.0141C22.3052 25.6525 22.8227 26.17 23.461 26.17Z" fill="white" stroke="white" stroke-width="2" stroke-linecap="round" stroke-linejoin="round"/>
<g id="Vector_3">
<path d="M1.5 1.89709H6.12338L9.22104 17.3738C9.32673 17.906 9.61623 18.384 10.0389 18.7242C10.4615 19.0644 10.9903 19.2452 11.5327 19.2348H22.7675C23.31 19.2452 23.8388 19.0644 24.2614 18.7242C24.684 18.384 24.9735 17.906 25.0792 17.3738L26.9286 7.67632H7.27922" fill="white"/>
<path d="M1.5 1.89709H6.12338L9.22104 17.3738C9.32673 17.906 9.61623 18.384 10.0389 18.7242C10.4615 19.0644 10.9903 19.2452 11.5327 19.2348H22.7675C23.31 19.2452 23.8388 19.0644 24.2614 18.7242C24.684 18.384 24.9735 17.906 25.0792 17.3738L26.9286 7.67632H7.27922" stroke="white" stroke-width="2" stroke-linecap="round" stroke-linejoin="round"/>
</g>
</g>
</svg>
