<svg width="84" height="76" viewBox="0 0 84 76" fill="none" xmlns="http://www.w3.org/2000/svg">
<path id="Vector" d="M60.7828 38.0603L38.1518 67.7147L43.0682 72.397L66.4796 42.7426L60.7828 38.0603ZM60.7828 38.0603C60.7828 38.0603 55.4762 30.2565 49.0771 31.193C42.678 32.0514 27.8508 40.4015 3.26883 28.5397C3.26883 28.5397 1.31788 27.3691 2.25433 25.9644C3.19079 24.5598 10.2922 19.7214 18.4082 13.7125C26.5241 7.70355 35.9667 2.39697 49.0771 2.39697C62.1875 2.39697 81.853 10.8251 81.853 30.6467C81.853 50.4683 69.9132 47.6589 60.7828 38.0603ZM46.892 48.0491L41.2733 33.7682L35.0303 35.0168L44.1607 56.4772M6 22.7648C6 22.7648 16.7692 26.5887 26.3679 27.213M29.1772 20.892C29.1772 20.892 47.7503 3.56753 67.9621 18.941M41.9757 22.0625C41.9757 22.0625 50.0136 16.7559 57.037 22.0625M72.2544 39.465C72.2544 39.465 68.7427 33.0659 71.2399 31.5051C73.7371 29.9444 81.9311 32.0514 81.9311 32.0514M55.1641 59.3646C55.1641 62.7264 52.4388 65.4516 49.0771 65.4516C45.7154 65.4516 42.9901 62.7264 42.9901 59.3646C42.9901 56.0029 45.7154 53.2777 49.0771 53.2777C52.4388 53.2777 55.1641 56.0029 55.1641 59.3646Z" stroke="#E54545" stroke-width="4" stroke-miterlimit="10"/>
</svg>
