<svg width="38" height="36" viewBox="0 0 38 36" fill="none" xmlns="http://www.w3.org/2000/svg">
<path id="Vector" d="M1.91846 1.5H8.20417L12.4156 22.5414C12.5593 23.2649 12.9529 23.9148 13.5275 24.3773C14.102 24.8399 14.821 25.0856 15.5585 25.0714H30.8327C31.5702 25.0856 32.2892 24.8399 32.8637 24.3773C33.4383 23.9148 33.8319 23.2649 33.9756 22.5414L36.4899 9.35714H9.7756M16.0613 32.9286C16.0613 33.7964 15.3578 34.5 14.4899 34.5C13.622 34.5 12.9185 33.7964 12.9185 32.9286C12.9185 32.0607 13.622 31.3571 14.4899 31.3571C15.3578 31.3571 16.0613 32.0607 16.0613 32.9286ZM33.347 32.9286C33.347 33.7964 32.6435 34.5 31.7756 34.5C30.9077 34.5 30.2042 33.7964 30.2042 32.9286C30.2042 32.0607 30.9077 31.3571 31.7756 31.3571C32.6435 31.3571 33.347 32.0607 33.347 32.9286Z" stroke="black" stroke-width="3" stroke-linecap="round" stroke-linejoin="round"/>
</svg>
