<svg width="79" height="71" viewBox="0 0 79 71" fill="none" xmlns="http://www.w3.org/2000/svg">
<g id="Frame" clip-path="url(#clip0_3_155)">
<path id="Vector" d="M6.39323 70.5L26.9011 52.7146L38.5957 64.4093L41.4962 61.5088L30.0078 50.0204L42.4346 39.2433L44.3967 41.2053C50.0072 46.8158 59.089 46.8168 64.7002 41.2053C69.8417 36.0638 70.2472 28.0463 66.0478 22.4547L70.5013 18.0012C74.4996 14.003 74.4996 7.49715 70.5013 3.49872C66.503 -0.499573 59.9972 -0.499573 55.9989 3.49872L51.6481 7.8495L50.1978 6.3992C47.799 4.00039 43.8953 4.00011 41.4962 6.3992C40.6965 7.1988 39.3954 7.1988 38.5957 6.3992L37.1454 4.94889L34.245 7.84937L35.6953 9.29968C38.0942 11.6986 41.9979 11.6985 44.3967 9.29968C45.1963 8.50007 46.4974 8.49994 47.2973 9.29968L48.7475 10.75L40.9627 18.602V24.4871L37.451 28.4587L34.2448 25.2525C29.4469 20.4545 21.6399 20.4545 16.8418 25.2525C12.0438 30.0505 12.0438 37.8575 16.8418 42.6555L21.2853 47.099L3.5 67.6069L6.39323 70.5ZM25.4996 48.5004L37.6647 34.4731L39.5269 36.3353L25.4996 48.5004ZM61.7998 38.3047C57.7925 42.3122 51.3055 42.3129 47.2973 38.3047L45.5414 36.5488L49.5132 33.1738H55.3981L63.1054 25.397C65.7199 29.3348 65.3434 34.7613 61.7998 38.3047ZM45.0648 26.0179V20.3009L58.8994 6.3992C61.2983 4.00025 65.2017 4.00025 67.6009 6.3992C69.9999 8.79828 69.9999 12.7017 67.6009 15.1008L63.2502 19.4516L60.3495 16.5509L66.1505 10.7498L63.25 7.84937L48.7476 22.352L51.6481 25.2525L57.4491 19.4514L60.3495 22.352L53.6989 29.072H47.9819L42.6334 33.6411L40.3589 31.3666L45.0648 26.0179ZM19.7424 39.755C16.5437 36.5564 16.5437 31.3517 19.7424 28.153C22.9413 24.9543 28.1458 24.9543 31.3446 28.153L34.757 31.5654L23.9799 43.9923L19.7424 39.755Z" fill="#E40514"/>
</g>
<defs>
<clipPath id="clip0_3_155">
<rect width="77.7778" height="70" fill="white" transform="translate(0.5 0.396973)"/>
</clipPath>
</defs>
</svg>
