<svg width="51" height="51" viewBox="0 0 51 51" fill="none" xmlns="http://www.w3.org/2000/svg">
<g id="Group 14">
<circle id="Ellipse 1" cx="25.5" cy="25.8971" r="25" fill="white"/>
<path id="Vector" d="M34.141 19.2443C33.621 18.7236 33.0035 18.3105 32.324 18.0287C31.6444 17.7469 30.916 17.6018 30.1805 17.6018C29.4449 17.6018 28.7165 17.7469 28.0369 18.0287C27.3574 18.3105 26.74 18.7236 26.2199 19.2443L25.1407 20.3245L24.0615 19.2443C23.0111 18.193 21.5865 17.6024 20.101 17.6024C18.6155 17.6024 17.1909 18.193 16.1405 19.2443C15.0901 20.2957 14.5 21.7216 14.5 23.2084C14.5 24.6953 15.0901 26.1212 16.1405 27.1725L17.2197 28.2527L25.1407 36.1809L33.0618 28.2527L34.141 27.1725C34.6612 26.652 35.0739 26.0341 35.3555 25.3539C35.6371 24.6737 35.782 23.9447 35.782 23.2084C35.782 22.4722 35.6371 21.7431 35.3555 21.063C35.0739 20.3828 34.6612 19.7648 34.141 19.2443V19.2443Z" stroke="black" stroke-width="2" stroke-linecap="round" stroke-linejoin="round"/>
</g>
</svg>
