<svg width="31" height="30" viewBox="0 0 31 30" fill="none" xmlns="http://www.w3.org/2000/svg">
<path id="Vector" d="M30.5 3.21429V26.7857C30.5 28.5603 29.0603 30 27.2857 30H21.5737V18.1339H25.6317L26.2143 13.6071H21.5737V10.7143C21.5737 9.40179 21.9353 8.51116 23.817 8.51116H26.2143V4.46652C25.7991 4.41295 24.3795 4.28571 22.7188 4.28571C19.2634 4.28571 16.8929 6.39509 16.8929 10.2723V13.6138H12.8214V18.1406H16.8996V30H3.71429C1.93973 30 0.5 28.5603 0.5 26.7857V3.21429C0.5 1.43973 1.93973 0 3.71429 0H27.2857C29.0603 0 30.5 1.43973 30.5 3.21429Z" fill="#F7F7F7"/>
</svg>
