<svg width="178" height="43" viewBox="0 0 178 43" fill="none" xmlns="http://www.w3.org/2000/svg">
<g id="detal">
<g id="Rectangle 68">
<path d="M4.11875 6.91C4.66696 6.03286 5.62837 5.5 6.66274 5.5H11.3915C12.9624 5.5 13.9201 7.2279 13.0875 8.56L10.8813 12.09C10.333 12.9671 9.37163 13.5 8.33726 13.5H3.60849C2.03762 13.5 1.07994 11.7721 1.9125 10.44L4.11875 6.91Z" fill="#E40514"/>
<path d="M17.1187 6.91C17.667 6.03286 18.6284 5.5 19.6627 5.5H34.3915C35.9624 5.5 36.9201 7.2279 36.0875 8.56L33.8813 12.09C33.333 12.9671 32.3716 13.5 31.3373 13.5H16.6085C15.0376 13.5 14.0799 11.7721 14.9125 10.44L17.1187 6.91Z" fill="#E40514"/>
<path d="M40.1187 6.91C40.667 6.03286 41.6284 5.5 42.6627 5.5H67.3915C68.9624 5.5 69.9201 7.2279 69.0875 8.56L66.8813 12.09C66.333 12.9671 65.3716 13.5 64.3373 13.5H39.6085C38.0376 13.5 37.0799 11.7721 37.9125 10.44L40.1187 6.91Z" fill="#E40514"/>
<path d="M73.1189 6.91C73.6671 6.03286 74.6285 5.5 75.6629 5.5H130.392C131.963 5.5 132.92 7.2279 132.088 8.56L129.881 12.09C129.333 12.9671 128.372 13.5 127.337 13.5H72.6087C71.0378 13.5 70.0801 11.7721 70.9127 10.44L73.1189 6.91Z" fill="#E40514"/>
</g>
</g>
</svg>
