<svg width="32" height="30" viewBox="0 0 32 30" fill="none" xmlns="http://www.w3.org/2000/svg">
<path id="Vector" d="M16.0035 7.30838C11.605 7.30838 8.05722 10.7425 8.05722 15C8.05722 19.2575 11.605 22.6916 16.0035 22.6916C20.4019 22.6916 23.9497 19.2575 23.9497 15C23.9497 10.7425 20.4019 7.30838 16.0035 7.30838ZM16.0035 20.0006C13.1611 20.0006 10.8374 17.758 10.8374 15C10.8374 12.242 13.1542 9.99944 16.0035 9.99944C18.8528 9.99944 21.1695 12.242 21.1695 15C21.1695 17.758 18.8458 20.0006 16.0035 20.0006ZM26.1282 6.99375C26.1282 7.99119 25.2983 8.7878 24.2747 8.7878C23.2443 8.7878 22.4213 7.98449 22.4213 6.99375C22.4213 6.00301 23.2512 5.19971 24.2747 5.19971C25.2983 5.19971 26.1282 6.00301 26.1282 6.99375ZM31.3911 8.81457C31.2735 6.41136 30.7064 4.28261 28.8876 2.52873C27.0756 0.774852 24.8764 0.225929 22.3936 0.105433C19.8348 -0.0351445 12.1652 -0.0351445 9.60636 0.105433C7.13051 0.219235 4.93129 0.768158 3.11244 2.52204C1.29359 4.27591 0.733408 6.40466 0.608924 8.80788C0.463692 11.2847 0.463692 18.7086 0.608924 21.1854C0.726492 23.5886 1.29359 25.7174 3.11244 27.4713C4.93129 29.2251 7.12359 29.7741 9.60636 29.8946C12.1652 30.0351 19.8348 30.0351 22.3936 29.8946C24.8764 29.7808 27.0756 29.2318 28.8876 27.4713C30.6995 25.7174 31.2666 23.5886 31.3911 21.1854C31.5363 18.7086 31.5363 11.2914 31.3911 8.81457ZM28.0853 23.843C27.5459 25.1551 26.5016 26.1659 25.1392 26.6947C23.0991 27.478 18.258 27.2972 16.0035 27.2972C13.7489 27.2972 8.90095 27.4713 6.86771 26.6947C5.51221 26.1726 4.46793 25.1618 3.92158 23.843C3.11244 21.8682 3.29916 17.1823 3.29916 15C3.29916 12.8177 3.11935 8.12507 3.92158 6.15698C4.46101 4.84492 5.5053 3.8341 6.86771 3.30525C8.90786 2.52204 13.7489 2.70278 16.0035 2.70278C18.258 2.70278 23.106 2.52873 25.1392 3.30525C26.4947 3.8274 27.539 4.83822 28.0853 6.15698C28.8945 8.13176 28.7078 12.8177 28.7078 15C28.7078 17.1823 28.8945 21.8749 28.0853 23.843Z" fill="#F7F7F7"/>
</svg>
