<svg width="17" height="20" viewBox="0 0 17 20" fill="none" xmlns="http://www.w3.org/2000/svg">
<g id="Group 45">
<path id="Vector" d="M16.8636 8.18182C16.8636 14.5455 8.68182 20 8.68182 20C8.68182 20 0.5 14.5455 0.5 8.18182C0.5 6.01187 1.36201 3.93079 2.8964 2.3964C4.43079 0.86201 6.51187 0 8.68182 0C10.8518 0 12.9328 0.86201 14.4672 2.3964C16.0016 3.93079 16.8636 6.01187 16.8636 8.18182Z" fill="#F2F3F5"/>
<path id="Vector_2" d="M8.68183 10.9091C10.1881 10.9091 11.4091 9.68809 11.4091 8.18186C11.4091 6.67563 10.1881 5.45459 8.68183 5.45459C7.1756 5.45459 5.95456 6.67563 5.95456 8.18186C5.95456 9.68809 7.1756 10.9091 8.68183 10.9091Z" fill="black"/>
</g>
</svg>
