<svg width="156" height="51" viewBox="0 0 156 51" fill="none" xmlns="http://www.w3.org/2000/svg">
<g id="logo">
<path id="Rectangle 70 (Stroke)" fill-rule="evenodd" clip-rule="evenodd" d="M149.95 6H6.05031V45H149.95V6ZM0 0V51H156V0H0Z" fill="black"/>
<g id="Logo">
<path d="M30.4416 34.3668V40.5906H0V3.57959H6.08V34.3668H30.4416Z" fill="black"/>
<path d="M44.9812 13.8845C46.9609 13.8845 48.7615 14.1991 50.3828 14.8283C52.0041 15.4575 53.3951 16.3587 54.5556 17.5321C55.7161 18.6884 56.6121 20.0998 57.2436 21.7663C57.8751 23.4327 58.1908 25.3118 58.1908 27.4034C58.1908 29.495 57.8751 31.3825 57.2436 33.066C56.6121 34.7324 55.7161 36.1523 54.5556 37.3257C53.3951 38.499 52.0041 39.4003 50.3828 40.0294C48.7615 40.6586 46.9609 40.9732 44.9812 40.9732C42.9844 40.9732 41.1668 40.6586 39.5284 40.0294C37.9071 39.4003 36.5161 38.499 35.3556 37.3257C34.1951 36.1523 33.2905 34.7324 32.642 33.066C32.0105 31.3825 31.6948 29.495 31.6948 27.4034C31.6948 25.3118 32.0105 23.4327 32.642 21.7663C33.2905 20.0998 34.1951 18.6884 35.3556 17.5321C36.5161 16.3587 37.9071 15.4575 39.5284 14.8283C41.1668 14.1991 42.9844 13.8845 44.9812 13.8845ZM44.9812 35.6932C46.9951 35.6932 48.4884 35.0045 49.4612 33.6271C50.434 32.2327 50.9204 30.1666 50.9204 27.4289C50.9204 24.7081 50.434 22.659 49.4612 21.2816C48.4884 19.8872 46.9951 19.19 44.9812 19.19C42.9161 19.19 41.3972 19.8872 40.4244 21.2816C39.4516 22.659 38.9652 24.7081 38.9652 27.4289C38.9652 30.1666 39.4516 32.2327 40.4244 33.6271C41.3972 35.0045 42.9161 35.6932 44.9812 35.6932Z" fill="black"/>
<path d="M72.2076 26.4596C73.6583 26.4596 74.7249 26.094 75.4076 25.3628C76.1073 24.6316 76.4572 23.6878 76.4572 22.5315C76.4572 21.3241 76.1073 20.3804 75.4076 19.7002C74.7249 19.003 73.6583 18.6544 72.2076 18.6544C70.7569 18.6544 69.6903 19.003 69.0076 19.7002C68.3249 20.3804 67.9836 21.3241 67.9836 22.5315C67.9836 23.6708 68.3249 24.6146 69.0076 25.3628C69.7073 26.094 70.774 26.4596 72.2076 26.4596ZM78.8892 41.6619C78.8892 41.2028 78.7441 40.8287 78.454 40.5396C78.1639 40.2505 77.7713 40.0209 77.2764 39.8509C76.7985 39.6808 76.2268 39.5618 75.5612 39.4938C74.8956 39.4088 74.1873 39.3493 73.4364 39.3152C72.6855 39.2642 71.9089 39.2217 71.1068 39.1877C70.3047 39.1537 69.5196 39.0942 68.7516 39.0092C68.1543 39.3663 67.6593 39.7914 67.2668 40.2845C66.8913 40.7607 66.7036 41.3048 66.7036 41.917C66.7036 42.3421 66.7975 42.7332 66.9852 43.0903C67.19 43.4474 67.5228 43.7535 67.9836 44.0086C68.4444 44.2636 69.0503 44.4592 69.8012 44.5952C70.5521 44.7483 71.4908 44.8248 72.6172 44.8248C73.7777 44.8248 74.7591 44.7483 75.5612 44.5952C76.3633 44.4422 77.0119 44.2211 77.5068 43.9321C78.0017 43.66 78.3516 43.3284 78.5564 42.9373C78.7783 42.5462 78.8892 42.121 78.8892 41.6619ZM85.9036 15.1599V17.7361C85.9036 18.1442 85.7841 18.4673 85.5452 18.7054C85.3233 18.9435 84.9479 19.122 84.4188 19.241L82.2684 19.6747C82.5585 20.5079 82.7036 21.4007 82.7036 22.3529C82.7036 23.6623 82.4305 24.8441 81.8844 25.8984C81.3553 26.9357 80.6215 27.8285 79.6828 28.5767C78.7441 29.3079 77.6348 29.8776 76.3548 30.2857C75.0748 30.6768 73.6924 30.8723 72.2076 30.8723C71.2689 30.8723 70.39 30.7958 69.5708 30.6428C68.854 31.0849 68.4956 31.5695 68.4956 32.0967C68.4956 32.5898 68.7345 32.9469 69.2124 33.168C69.7073 33.3891 70.3473 33.5506 71.1324 33.6526C71.9345 33.7377 72.8391 33.7972 73.846 33.8312C74.87 33.8482 75.9025 33.8992 76.9436 33.9842C78.0017 34.0693 79.0343 34.2223 80.0412 34.4434C81.0652 34.6474 81.9697 34.996 82.7548 35.4892C83.5569 35.9653 84.1969 36.603 84.6748 37.4022C85.1697 38.2014 85.4172 39.2302 85.4172 40.4886C85.4172 41.6619 85.1271 42.8012 84.5468 43.9065C83.9665 45.0119 83.1217 45.9981 82.0124 46.8654C80.9201 47.7326 79.5719 48.4298 77.9676 48.957C76.3633 49.4841 74.5372 49.7477 72.4892 49.7477C70.4583 49.7477 68.6919 49.5521 67.19 49.161C65.7052 48.7869 64.4679 48.2768 63.478 47.6306C62.5052 47.0014 61.7799 46.2702 61.302 45.437C60.8241 44.6037 60.5852 43.7365 60.5852 42.8352C60.5852 41.6619 60.9436 40.6671 61.6604 39.8509C62.3772 39.0347 63.3671 38.38 64.63 37.8868C63.9644 37.5127 63.4268 37.0281 63.0172 36.4329C62.6247 35.8207 62.4284 35.03 62.4284 34.0607C62.4284 33.2785 62.71 32.4538 63.2732 31.5865C63.8535 30.7193 64.7409 29.9966 65.9356 29.4184C64.5873 28.7042 63.5207 27.752 62.7356 26.5616C61.9505 25.3543 61.558 23.9514 61.558 22.3529C61.558 21.0436 61.8225 19.8617 62.3516 18.8074C62.8977 17.7531 63.6487 16.8604 64.6044 16.1292C65.5601 15.3809 66.6865 14.8113 67.9836 14.4202C69.2807 14.0291 70.6887 13.8335 72.2076 13.8335C74.4604 13.8335 76.4487 14.2756 78.1724 15.1599H85.9036Z" fill="black"/>
<path d="M100.981 13.8845C102.961 13.8845 104.761 14.1991 106.383 14.8283C108.004 15.4575 109.395 16.3587 110.556 17.5321C111.716 18.6884 112.612 20.0998 113.244 21.7663C113.875 23.4327 114.191 25.3118 114.191 27.4034C114.191 29.495 113.875 31.3825 113.244 33.066C112.612 34.7324 111.716 36.1523 110.556 37.3257C109.395 38.499 108.004 39.4003 106.383 40.0294C104.761 40.6586 102.961 40.9732 100.981 40.9732C98.9844 40.9732 97.1668 40.6586 95.5284 40.0294C93.9071 39.4003 92.5161 38.499 91.3556 37.3257C90.1951 36.1523 89.2905 34.7324 88.642 33.066C88.0105 31.3825 87.6948 29.495 87.6948 27.4034C87.6948 25.3118 88.0105 23.4327 88.642 21.7663C89.2905 20.0998 90.1951 18.6884 91.3556 17.5321C92.5161 16.3587 93.9071 15.4575 95.5284 14.8283C97.1668 14.1991 98.9844 13.8845 100.981 13.8845ZM100.981 35.6932C102.995 35.6932 104.488 35.0045 105.461 33.6271C106.434 32.2327 106.92 30.1666 106.92 27.4289C106.92 24.7081 106.434 22.659 105.461 21.2816C104.488 19.8872 102.995 19.19 100.981 19.19C98.9161 19.19 97.3972 19.8872 96.4244 21.2816C95.4516 22.659 94.9652 24.7081 94.9652 27.4289C94.9652 30.1666 95.4516 32.2327 96.4244 33.6271C97.3972 35.0045 98.9161 35.6932 100.981 35.6932Z" fill="black"/>
</g>
</g>
</svg>
