<svg width="156" height="51" viewBox="0 0 156 51" fill="none" xmlns="http://www.w3.org/2000/svg">
<g id="logo">
<path id="Rectangle 70 (Stroke)" fill-rule="evenodd" clip-rule="evenodd" d="M149.95 6H6.05031V45H149.95V6ZM0 0V51H156V0H0Z" fill="#E40515"/>
<g id="Logo">
<path d="M30.4416 34.367V40.5907H0V3.57971H6.08V34.367H30.4416Z" fill="#E40515"/>
<path d="M44.9812 13.8846C46.9609 13.8846 48.7615 14.1992 50.3828 14.8284C52.0041 15.4576 53.3951 16.3588 54.5556 17.5322C55.7161 18.6885 56.6121 20.0999 57.2436 21.7664C57.8751 23.4329 58.1908 25.3119 58.1908 27.4035C58.1908 29.4951 57.8751 31.3826 57.2436 33.0661C56.6121 34.7326 55.7161 36.1525 54.5556 37.3258C53.3951 38.4991 52.0041 39.4004 50.3828 40.0296C48.7615 40.6587 46.9609 40.9733 44.9812 40.9733C42.9844 40.9733 41.1668 40.6587 39.5284 40.0296C37.9071 39.4004 36.5161 38.4991 35.3556 37.3258C34.1951 36.1525 33.2905 34.7326 32.642 33.0661C32.0105 31.3826 31.6948 29.4951 31.6948 27.4035C31.6948 25.3119 32.0105 23.4329 32.642 21.7664C33.2905 20.0999 34.1951 18.6885 35.3556 17.5322C36.5161 16.3588 37.9071 15.4576 39.5284 14.8284C41.1668 14.1992 42.9844 13.8846 44.9812 13.8846ZM44.9812 35.6933C46.9951 35.6933 48.4884 35.0046 49.4612 33.6272C50.434 32.2329 50.9204 30.1668 50.9204 27.429C50.9204 24.7082 50.434 22.6591 49.4612 21.2817C48.4884 19.8873 46.9951 19.1901 44.9812 19.1901C42.9161 19.1901 41.3972 19.8873 40.4244 21.2817C39.4516 22.6591 38.9652 24.7082 38.9652 27.429C38.9652 30.1668 39.4516 32.2329 40.4244 33.6272C41.3972 35.0046 42.9161 35.6933 44.9812 35.6933Z" fill="#E40515"/>
<path d="M72.2076 26.4597C73.6583 26.4597 74.7249 26.0941 75.4076 25.3629C76.1073 24.6317 76.4572 23.6879 76.4572 22.5316C76.4572 21.3243 76.1073 20.3805 75.4076 19.7003C74.7249 19.0031 73.6583 18.6545 72.2076 18.6545C70.7569 18.6545 69.6903 19.0031 69.0076 19.7003C68.3249 20.3805 67.9836 21.3243 67.9836 22.5316C67.9836 23.6709 68.3249 24.6147 69.0076 25.3629C69.7073 26.0941 70.774 26.4597 72.2076 26.4597ZM78.8892 41.662C78.8892 41.2029 78.7441 40.8288 78.454 40.5397C78.1639 40.2506 77.7713 40.0211 77.2764 39.851C76.7985 39.681 76.2268 39.5619 75.5612 39.4939C74.8956 39.4089 74.1873 39.3494 73.4364 39.3154C72.6855 39.2644 71.9089 39.2218 71.1068 39.1878C70.3047 39.1538 69.5196 39.0943 68.7516 39.0093C68.1543 39.3664 67.6593 39.7915 67.2668 40.2846C66.8913 40.7608 66.7036 41.3049 66.7036 41.9171C66.7036 42.3422 66.7975 42.7333 66.9852 43.0904C67.19 43.4475 67.5228 43.7536 67.9836 44.0087C68.4444 44.2638 69.0503 44.4593 69.8012 44.5954C70.5521 44.7484 71.4908 44.8249 72.6172 44.8249C73.7777 44.8249 74.7591 44.7484 75.5612 44.5954C76.3633 44.4423 77.0119 44.2213 77.5068 43.9322C78.0017 43.6601 78.3516 43.3285 78.5564 42.9374C78.7783 42.5463 78.8892 42.1212 78.8892 41.662ZM85.9036 15.16V17.7362C85.9036 18.1443 85.7841 18.4674 85.5452 18.7055C85.3233 18.9436 84.9479 19.1221 84.4188 19.2412L82.2684 19.6748C82.5585 20.508 82.7036 21.4008 82.7036 22.353C82.7036 23.6624 82.4305 24.8443 81.8844 25.8986C81.3553 26.9358 80.6215 27.8286 79.6828 28.5768C78.7441 29.308 77.6348 29.8777 76.3548 30.2858C75.0748 30.6769 73.6924 30.8725 72.2076 30.8725C71.2689 30.8725 70.39 30.7959 69.5708 30.6429C68.854 31.085 68.4956 31.5697 68.4956 32.0968C68.4956 32.59 68.7345 32.9471 69.2124 33.1681C69.7073 33.3892 70.3473 33.5507 71.1324 33.6528C71.9345 33.7378 72.8391 33.7973 73.846 33.8313C74.87 33.8483 75.9025 33.8993 76.9436 33.9843C78.0017 34.0694 79.0343 34.2224 80.0412 34.4435C81.0652 34.6475 81.9697 34.9961 82.7548 35.4893C83.5569 35.9654 84.1969 36.6031 84.6748 37.4023C85.1697 38.2015 85.4172 39.2303 85.4172 40.4887C85.4172 41.662 85.1271 42.8014 84.5468 43.9067C83.9665 45.012 83.1217 45.9983 82.0124 46.8655C80.9201 47.7328 79.5719 48.43 77.9676 48.9571C76.3633 49.4843 74.5372 49.7478 72.4892 49.7478C70.4583 49.7478 68.6919 49.5523 67.19 49.1612C65.7052 48.7871 64.4679 48.2769 63.478 47.6307C62.5052 47.0015 61.7799 46.2703 61.302 45.4371C60.8241 44.6039 60.5852 43.7366 60.5852 42.8354C60.5852 41.662 60.9436 40.6672 61.6604 39.851C62.3772 39.0348 63.3671 38.3801 64.63 37.887C63.9644 37.5129 63.4268 37.0282 63.0172 36.433C62.6247 35.8209 62.4284 35.0301 62.4284 34.0609C62.4284 33.2786 62.71 32.4539 63.2732 31.5867C63.8535 30.7194 64.7409 29.9967 65.9356 29.4186C64.5873 28.7044 63.5207 27.7521 62.7356 26.5617C61.9505 25.3544 61.558 23.9515 61.558 22.353C61.558 21.0437 61.8225 19.8618 62.3516 18.8075C62.8977 17.7532 63.6487 16.8605 64.6044 16.1293C65.5601 15.3811 66.6865 14.8114 67.9836 14.4203C69.2807 14.0292 70.6887 13.8336 72.2076 13.8336C74.4604 13.8336 76.4487 14.2758 78.1724 15.16H85.9036Z" fill="#E40515"/>
<path d="M100.981 13.8846C102.961 13.8846 104.761 14.1992 106.383 14.8284C108.004 15.4576 109.395 16.3588 110.556 17.5322C111.716 18.6885 112.612 20.0999 113.244 21.7664C113.875 23.4329 114.191 25.3119 114.191 27.4035C114.191 29.4951 113.875 31.3826 113.244 33.0661C112.612 34.7326 111.716 36.1525 110.556 37.3258C109.395 38.4991 108.004 39.4004 106.383 40.0296C104.761 40.6587 102.961 40.9733 100.981 40.9733C98.9844 40.9733 97.1668 40.6587 95.5284 40.0296C93.9071 39.4004 92.5161 38.4991 91.3556 37.3258C90.1951 36.1525 89.2905 34.7326 88.642 33.0661C88.0105 31.3826 87.6948 29.4951 87.6948 27.4035C87.6948 25.3119 88.0105 23.4329 88.642 21.7664C89.2905 20.0999 90.1951 18.6885 91.3556 17.5322C92.5161 16.3588 93.9071 15.4576 95.5284 14.8284C97.1668 14.1992 98.9844 13.8846 100.981 13.8846ZM100.981 35.6933C102.995 35.6933 104.488 35.0046 105.461 33.6272C106.434 32.2329 106.92 30.1668 106.92 27.429C106.92 24.7082 106.434 22.6591 105.461 21.2817C104.488 19.8873 102.995 19.1901 100.981 19.1901C98.9161 19.1901 97.3972 19.8873 96.4244 21.2817C95.4516 22.6591 94.9652 24.7082 94.9652 27.429C94.9652 30.1668 95.4516 32.2329 96.4244 33.6272C97.3972 35.0046 98.9161 35.6933 100.981 35.6933Z" fill="#E40515"/>
</g>
</g>
</svg>
