<svg width="91" height="75" viewBox="0 0 91 75" fill="none" xmlns="http://www.w3.org/2000/svg">
<path id="Vector" d="M83.4399 16.903C83.4399 16.903 94.8428 34.0073 81.5395 54.9126C81.5395 54.9126 41.0973 57.1932 19.3559 72.397C19.3559 72.397 5.52038 60.614 19.3559 44.65C19.3559 44.65 26.5777 47.6908 30.9108 47.6908C35.2438 47.6908 40.7932 45.5622 40.7932 36.8961C40.7932 28.2299 33.9515 26.2534 30.1506 26.2534C26.3496 26.2534 5.52038 26.0253 4 24.505C4 24.505 15.2508 18.5755 19.3559 15.5347C23.4609 12.4939 36.3081 1.47118 54.1726 2.45943C72.0371 3.44767 86.1006 12.4939 86.1006 12.4939C86.1006 12.4939 77.7385 16.4469 69.9846 16.4469C62.2306 16.4469 54.9328 11.8858 47.5589 11.8858C40.1851 11.8858 31.4429 17.0551 26.8817 22.1484M88.0009 29.9784C88.0009 29.9784 59.9499 30.8906 57.3652 58.1815" stroke="#E54545" stroke-width="4" stroke-miterlimit="10"/>
</svg>
