<svg width="179" height="42" viewBox="0 0 179 42" fill="none" xmlns="http://www.w3.org/2000/svg">
<g id="detal">
<g id="Rectangle 68">
<path d="M4.61875 6.41C5.16696 5.53286 6.12837 5 7.16274 5H11.8915C13.4624 5 14.4201 6.7279 13.5875 8.06L11.3813 11.59C10.833 12.4671 9.87163 13 8.83726 13H4.10849C2.53762 13 1.57994 11.2721 2.4125 9.94L4.61875 6.41Z" fill="white"/>
<path d="M17.6187 6.41C18.167 5.53286 19.1284 5 20.1627 5H34.8915C36.4624 5 37.4201 6.7279 36.5875 8.06L34.3813 11.59C33.833 12.4671 32.8716 13 31.8373 13H17.1085C15.5376 13 14.5799 11.2721 15.4125 9.94L17.6187 6.41Z" fill="white"/>
<path d="M40.6187 6.41C41.167 5.53286 42.1284 5 43.1627 5H67.8915C69.4624 5 70.4201 6.7279 69.5875 8.06L67.3813 11.59C66.833 12.4671 65.8716 13 64.8373 13H40.1085C38.5376 13 37.5799 11.2721 38.4125 9.94L40.6187 6.41Z" fill="white"/>
<path d="M73.6189 6.41C74.1671 5.53286 75.1285 5 76.1629 5H130.892C132.463 5 133.42 6.7279 132.588 8.06L130.381 11.59C129.833 12.4671 128.872 13 127.837 13H73.1087C71.5378 13 70.5801 11.2721 71.4127 9.94L73.6189 6.41Z" fill="white"/>
</g>
</g>
</svg>
