<svg width="22" height="21" viewBox="0 0 22 21" fill="none" xmlns="http://www.w3.org/2000/svg">
<path id="Vector" d="M13.4381 4C14.4149 4.19057 15.3125 4.66826 16.0162 5.37194C16.7199 6.07561 17.1976 6.97327 17.3881 7.95L13.4381 4ZM13.4381 0C15.4674 0.225436 17.3597 1.13417 18.8044 2.57701C20.249 4.01984 21.1601 5.91101 21.3881 7.94L13.4381 0ZM20.3881 15.92V18.92C20.3892 19.1985 20.3322 19.4742 20.2206 19.7293C20.1091 19.9845 19.9454 20.2136 19.7402 20.4019C19.535 20.5901 19.2927 20.7335 19.0289 20.8227C18.765 20.9119 18.4855 20.9451 18.2081 20.92C15.131 20.5856 12.1751 19.5341 9.57812 17.85C7.16194 16.3147 5.11345 14.2662 3.57812 11.85C1.88809 9.2412 0.83636 6.27099 0.508117 3.18C0.483127 2.90347 0.515992 2.62476 0.604617 2.36162C0.693243 2.09849 0.835688 1.85669 1.02288 1.65162C1.21008 1.44655 1.43792 1.28271 1.69191 1.17052C1.94589 1.05833 2.22046 1.00026 2.49812 1H5.49812C5.98342 0.995224 6.45391 1.16708 6.82188 1.48353C7.18985 1.79999 7.43019 2.23945 7.49812 2.72C7.62474 3.68007 7.85957 4.62273 8.19812 5.53C8.33266 5.88792 8.36178 6.27691 8.28202 6.65088C8.20227 7.02485 8.01698 7.36811 7.74812 7.64L6.47812 8.91C7.90167 11.4135 9.97457 13.4864 12.4781 14.91L13.7481 13.64C14.02 13.3711 14.3633 13.1858 14.7372 13.1061C15.1112 13.0263 15.5002 13.0555 15.8581 13.19C16.7654 13.5286 17.7081 13.7634 18.6681 13.89C19.1539 13.9585 19.5975 14.2032 19.9146 14.5775C20.2318 14.9518 20.4003 15.4296 20.3881 15.92Z" fill="#F2F3F5"/>
</svg>
