<svg width="75" height="75" viewBox="0 0 75 75" fill="none" xmlns="http://www.w3.org/2000/svg">
<path id="Vector" d="M48.3883 39.4691H35.4277M35.4277 39.4691L29.8198 45.077L42.5311 45.2016M35.4277 39.4691L41.5346 33.3626H50.2581M32.1879 56.4174C39.6651 47.8186 47.8901 39.5936 56.4889 32.1164L68.7017 21.5236C73.188 17.5358 73.9358 10.3078 68.9509 5.44755C64.4646 1.08583 57.3612 1.45969 53.3734 6.19528L42.7806 18.4081C35.3034 27.0069 27.0784 35.2319 18.4796 42.7091L6.26678 53.3019C1.65581 57.2897 1.03271 64.5177 5.76829 69.1287C10.5039 73.8643 17.6073 73.2411 21.5951 68.6302L32.1879 56.4174Z" stroke="#E54545" stroke-width="4" stroke-miterlimit="10" stroke-linecap="round" stroke-linejoin="round"/>
</svg>
