<svg width="38" height="29" viewBox="0 0 38 29" fill="none" xmlns="http://www.w3.org/2000/svg">
<path id="Vector" d="M33.6968 7.22732C33.7203 7.54449 33.7203 7.86173 33.7203 8.1789C33.7203 17.8531 26.0902 29 12.1447 29C7.84836 29 3.85726 27.7992 0.5 25.7149C1.11043 25.7828 1.6973 25.8055 2.33122 25.8055C5.87622 25.8055 9.13961 24.65 11.7456 22.6789C8.41182 22.6109 5.61802 20.5039 4.65543 17.6039C5.12502 17.6718 5.59453 17.7172 6.0876 17.7172C6.76842 17.7172 7.44931 17.6265 8.08315 17.468C4.60853 16.7882 2.00248 13.843 2.00248 10.2859V10.1953C3.01196 10.7391 4.18592 11.0789 5.43012 11.1242C3.3876 9.8101 2.04945 7.56715 2.04945 5.02964C2.04945 3.67029 2.42502 2.42419 3.08242 1.33668C6.81532 5.77731 12.4264 8.67726 18.7182 8.9945C18.6009 8.45075 18.5304 7.8844 18.5304 7.31798C18.5304 3.28512 21.9112 0 26.1136 0C28.2969 0 30.269 0.883591 31.6542 2.31094C33.368 1.99376 35.0114 1.38202 36.467 0.543754C35.9035 2.24301 34.7062 3.67036 33.1333 4.57654C34.6593 4.41803 36.1384 4.01012 37.5 3.44377C36.4672 4.89372 35.1759 6.18507 33.6968 7.22732Z" fill="#F7F7F7"/>
</svg>
